<svg width="32" height="32" viewBox="0 0 32 32" fill="none" xmlns="http://www.w3.org/2000/svg">
<path d="M0 16C0 7.16344 7.16344 0 16 0C24.8366 0 32 7.16344 32 16C32 24.8366 24.8366 32 16 32C7.16344 32 0 24.8366 0 16Z" fill="black"/>
<path d="M16.5961 21.2508C16.5961 21.2508 16.9041 21.2172 17.0619 21.0509C17.2063 20.8985 17.2013 20.6109 17.2013 20.6109C17.2013 20.6109 17.1821 19.2679 17.8173 19.0696C18.4434 18.8746 19.2472 20.3683 20.1003 20.9427C20.7447 21.377 21.2339 21.2819 21.2339 21.2819L23.5135 21.2508C23.5135 21.2508 24.7055 21.1787 24.1404 20.2585C24.0937 20.1831 23.8107 19.5776 22.4459 18.3338C21.016 17.0319 21.208 17.2424 22.9292 14.99C23.9776 13.6184 24.3967 12.781 24.2656 12.4229C24.1413 12.0804 23.37 12.1714 23.37 12.1714L20.804 12.1869C20.804 12.1869 20.6137 12.1615 20.4726 12.2443C20.3349 12.3254 20.2456 12.5147 20.2456 12.5147C20.2456 12.5147 19.8399 13.5758 19.2981 14.4787C18.1554 16.3829 17.6988 16.4837 17.5118 16.3657C17.0769 16.0896 17.1854 15.2579 17.1854 14.6672C17.1854 12.8211 17.4709 12.0517 16.6303 11.8526C16.3515 11.7862 16.1462 11.7428 15.4325 11.7354C14.5168 11.7264 13.7422 11.7387 13.3031 11.9493C13.0109 12.0894 12.7856 12.4024 12.9233 12.4204C13.0927 12.4426 13.4767 12.522 13.6804 12.7941C13.9433 13.1456 13.9342 13.9338 13.9342 13.9338C13.9342 13.9338 14.0852 16.1068 13.5811 16.3764C13.2355 16.5615 12.7614 16.1838 11.7422 14.4558C11.2204 13.5708 10.8265 12.5925 10.8265 12.5925C10.8265 12.5925 10.7505 12.4098 10.6144 12.3115C10.45 12.1927 10.2204 12.1558 10.2204 12.1558L7.78219 12.1714C7.78219 12.1714 7.41574 12.1812 7.28135 12.3377C7.16198 12.4762 7.27217 12.7638 7.27217 12.7638C7.27217 12.7638 9.1812 17.1482 11.3432 19.358C13.3256 21.3835 15.5761 21.2508 15.5761 21.2508H16.5961Z" fill="white"/>
</svg>
