<svg width="32" height="32" viewBox="0 0 32 32" fill="none" xmlns="http://www.w3.org/2000/svg">
<circle cx="16" cy="16" r="16" fill="black"/>
<path fill-rule="evenodd" clip-rule="evenodd" d="M16.0941 24.9017H16.0901C14.4978 24.9012 12.9332 24.5017 11.5436 23.7437L6.5 25.0667L7.84974 20.1366C7.01716 18.6937 6.57905 17.057 6.57977 15.3802C6.58185 10.1345 10.8499 5.8667 16.094 5.8667C18.6391 5.8678 21.0279 6.85861 22.8241 8.65697C24.6204 10.4552 25.6091 12.8456 25.6081 15.3877C25.606 20.6322 21.3397 24.8996 16.0941 24.9017ZM11.7772 22.0213L12.066 22.1927C13.2801 22.9132 14.6719 23.2944 16.0908 23.2949H16.0941C20.4526 23.2949 24 19.7475 24.0017 15.3872C24.0025 13.2742 23.1808 11.2874 21.6878 9.7927C20.1948 8.29797 18.2093 7.4744 16.0972 7.47367C11.7353 7.47367 8.18785 11.0208 8.18612 15.3808C8.18551 16.875 8.60358 18.3301 9.39516 19.5891L9.58318 19.8883L8.78432 22.8064L11.7772 22.0213ZM20.5616 17.4361C20.7274 17.5162 20.8394 17.5703 20.8872 17.6501C20.9466 17.7493 20.9466 18.2252 20.7486 18.7806C20.5504 19.3359 19.6007 19.8427 19.1439 19.9109C18.7344 19.9722 18.2161 19.9977 17.6466 19.8167C17.3013 19.7072 16.8586 19.5609 16.2914 19.316C14.0628 18.3537 12.5567 16.1936 12.272 15.7854C12.2521 15.7568 12.2381 15.7368 12.2304 15.7264L12.2284 15.7239C12.1026 15.556 11.2597 14.4313 11.2597 13.2672C11.2597 12.1722 11.7976 11.5983 12.0452 11.3341C12.0621 11.316 12.0777 11.2993 12.0917 11.2841C12.3096 11.0461 12.5672 10.9866 12.7256 10.9866C12.8841 10.9866 13.0427 10.988 13.1812 10.995C13.1983 10.9958 13.2161 10.9957 13.2345 10.9956C13.373 10.9948 13.5457 10.9938 13.7161 11.4031C13.7817 11.5606 13.8776 11.794 13.9787 12.0403C14.1833 12.5383 14.4093 13.0886 14.4491 13.1682C14.5085 13.2872 14.5481 13.426 14.4689 13.5847C14.457 13.6085 14.446 13.631 14.4355 13.6524C14.376 13.7739 14.3322 13.8633 14.2312 13.9812C14.1914 14.0276 14.1504 14.0776 14.1093 14.1276C14.0276 14.2272 13.9458 14.3268 13.8746 14.3977C13.7556 14.5163 13.6317 14.6449 13.7703 14.8829C13.909 15.1209 14.3861 15.8993 15.0928 16.5297C15.8525 17.2073 16.5128 17.4937 16.8474 17.6389C16.9128 17.6672 16.9657 17.6902 17.0046 17.7096C17.2422 17.8287 17.3809 17.8088 17.5196 17.6501C17.6583 17.4915 18.1138 16.956 18.2723 16.718C18.4307 16.4801 18.5893 16.5197 18.8072 16.599C19.0251 16.6784 20.1939 17.2535 20.4316 17.3725C20.478 17.3957 20.5214 17.4167 20.5616 17.4361Z" fill="#FDFDFD"/>
</svg>
